<?xml version="1.0" encoding="UTF-8"?>
<svg viewBox="0 0 48 48" fill="none" xmlns="http://www.w3.org/2000/svg">
<path d="M4.64104 31.4436L4.56865 31.9822C4.53496 32.2493 4.74927 32.4815 5.02807 32.4815H22.9718C23.2506 32.4815 23.4649 32.2486 23.4319 31.9822L23.3588 31.4436C23.3144 31.0254 23.6269 30.6414 24.0561 30.5973C24.4876 30.5519 24.8682 30.8589 24.9127 31.2778L24.9815 31.8017C25.1234 32.9725 24.441 34 23.2284 34H4.77004C3.55736 34 2.8772 32.9718 3.01839 31.8017L3.08648 31.2778C3.13092 30.8589 3.51149 30.5519 3.94224 30.5973C4.37155 30.6414 4.68476 31.0254 4.64104 31.4436Z" fill="#D60510"/>
<path d="M7.21336 14H20.8425C22.1261 14 22.7646 14.9414 22.9145 16.1836L22.9725 16.5788C23.0177 17.0047 22.698 17.3866 22.268 17.4328C21.838 17.4768 21.4524 17.1684 21.4087 16.7424L21.3549 16.3619C21.2961 15.8912 21.0918 15.5282 20.6009 15.5282H7.45417C6.9625 15.5282 6.75752 15.8912 6.7009 16.3619L6.64714 16.7424C6.60271 17.1684 6.21711 17.4768 5.78637 17.4328C5.35634 17.3873 5.03668 17.0054 5.08184 16.5788L5.13917 16.1836C5.2904 14.9414 5.929 14 7.21336 14Z" fill="#D60510"/>
<path d="M21.4155 27.4817C22.2754 27.4839 22.9604 26.8465 22.9413 26.0073C22.9237 25.1486 22.1569 24.5924 21.2998 24.5917H19.5708C19.1877 24.5917 18.8731 24.267 18.8731 23.861C18.8731 23.455 19.187 23.1281 19.5708 23.1281H20.727C21.5044 23.0986 22.104 22.6172 22.1414 21.8663C22.1801 21.0637 21.5022 20.4608 20.6734 20.4601H17.8707L17.8593 27.4817H21.4155ZM23.5396 21.862C23.5396 22.5934 23.2856 23.0081 22.8637 23.5189L22.8214 23.5707L22.8792 23.6073C23.7152 24.1254 24.2979 24.9093 24.3409 26.0087C24.4058 27.6477 23.0422 29.0036 21.4233 28.9993H17.156C16.7413 28.9993 16.4054 28.6486 16.4054 28.2161L16.4041 19.7839C16.4041 19.3499 16.7413 19 17.1546 19L20.6769 19.0093C22.2127 19.0122 23.5396 20.1612 23.5396 21.862Z" fill="black"/>
<path d="M9.78461 26.1121L9.80577 26.1718L9.82764 26.1121C10.0252 25.5567 10.2636 24.9424 10.5161 24.2705C10.7772 23.5664 11.0375 22.8916 11.2978 22.2493C11.5588 21.5961 11.8078 21.0148 12.0441 20.5075C12.2811 19.9887 12.4765 19.6337 12.6282 19.4383C12.8625 19.1538 13.1693 19.01 13.5545 19.01H13.7323C13.9651 19.01 14.1498 19.0711 14.2867 19.1911C14.4137 19.3025 14.4878 19.4333 14.5103 19.582L15.6129 28.2944C15.6129 28.5171 15.5494 28.6917 15.4239 28.8203C15.2991 28.9396 15.1213 29 14.8878 29C14.6543 29 14.4701 28.9432 14.3332 28.8333C14.183 28.722 14.097 28.5775 14.0744 28.3957C14.0384 28.1069 14.0031 27.785 13.9686 27.4321C13.9206 27.0801 13.7477 25.5603 13.7005 25.1766C13.6547 24.7821 13.3449 22.319 13.2391 21.4272L13.23 21.3496L12.8766 22.1048C12.7566 22.3649 12.6268 22.6761 12.4836 23.0396C12.3425 23.4032 12.1986 23.7869 12.0561 24.1915C11.9023 24.5852 11.2195 26.5728 11.2195 26.5728C11.156 26.7538 11.0375 27.1167 10.9267 27.4501C10.8181 27.7835 10.7165 28.0831 10.689 28.1399C10.5267 28.4698 10.2114 28.686 9.8093 28.6889C9.40084 28.6867 9.08481 28.4698 8.92397 28.1399C8.89575 28.0831 8.79487 27.7828 8.68553 27.4501C8.57548 27.1167 8.45696 26.7531 8.39277 26.5728C8.39277 26.5728 7.7092 24.5852 7.55683 24.1915C7.41433 23.7869 7.27182 23.4032 7.12933 23.0396C6.98683 22.6768 6.85632 22.3649 6.73852 22.1048L6.38368 21.3496L6.37522 21.4272C6.2687 22.319 5.95971 24.7821 5.91244 25.1766C5.86447 25.5603 5.69305 27.0801 5.64579 27.4321C5.61052 27.785 5.57454 28.1069 5.53856 28.3957C5.5167 28.5767 5.42922 28.7212 5.28108 28.8333C5.14352 28.9425 4.95799 29 4.72519 29C4.4924 29 4.31463 28.9396 4.18906 28.8203C4.0642 28.6903 4.00141 28.5157 4 28.293L5.10261 19.582C5.1273 19.4325 5.20066 19.3025 5.32764 19.1911C5.46379 19.0711 5.64932 19.01 5.88211 19.01H6.05988C6.44576 19.01 6.75262 19.1538 6.98612 19.4383C7.13779 19.633 7.33179 19.9887 7.56953 20.5075C7.80655 21.0148 8.05557 21.5961 8.31658 22.2493C8.57689 22.8923 8.8372 23.5664 9.09892 24.2705C9.35146 24.9424 9.5899 25.5567 9.78672 26.1121" fill="black"/>
<path d="M31.7495 22.9139C31.6578 23.2789 31.5626 23.6683 31.461 24.083C31.3595 24.4983 31.2593 24.8942 31.162 25.2715C31.0639 25.6494 30.9715 25.9807 30.8826 26.2667C30.7944 26.5519 30.7203 26.7473 30.6625 26.8537C30.5573 27.0391 30.3746 27.1317 30.1129 27.1317C30.0417 27.1317 29.9465 27.1174 29.8294 27.0873C29.7115 27.0563 29.6142 26.9723 29.5352 26.8336C29.4753 26.7272 29.4026 26.5225 29.3151 26.2164C29.2276 25.911 29.1338 25.561 29.0358 25.1622C28.9377 24.7642 28.8397 24.3431 28.7416 23.8983C28.6435 23.4543 28.5553 23.0418 28.4777 22.6602C28.3987 22.2787 28.3331 21.9532 28.2809 21.6859C28.2287 21.4165 28.1991 21.2562 28.1927 21.2031C28.1857 21.1693 28.1829 21.1463 28.1829 21.1334V21.0931C28.1829 20.981 28.2245 20.889 28.3106 20.8201C28.3952 20.7504 28.4996 20.7159 28.6245 20.7159C28.7416 20.7159 28.8361 20.7403 28.9088 20.7899C28.98 20.8395 29.0322 20.9271 29.0647 21.0536C29.0647 21.0665 29.083 21.1635 29.1175 21.3424C29.1542 21.5214 29.2001 21.7506 29.2559 22.0287C29.3109 22.3067 29.3736 22.6193 29.4428 22.9635C29.5105 23.3084 29.5818 23.659 29.6572 24.0133C29.7327 24.369 29.8082 24.711 29.883 25.0437C29.9577 25.3757 30.0276 25.6595 30.0932 25.8988C30.1581 25.6731 30.2301 25.4159 30.3091 25.1285C30.3873 24.8396 30.4664 24.5407 30.5439 24.2331C30.6215 23.9235 30.6971 23.616 30.769 23.3077C30.8409 22.9994 30.9087 22.712 30.9708 22.4469C31.0321 22.181 31.0864 21.946 31.1316 21.7398C31.1768 21.5343 31.2134 21.3812 31.2396 21.2821C31.2734 21.1564 31.334 21.0565 31.4257 20.9839C31.5182 20.9106 31.6283 20.8747 31.758 20.8747C31.902 20.8747 32.0197 20.912 32.1114 20.9889C32.2017 21.0644 32.261 21.1635 32.2878 21.2821C32.3598 21.6076 32.4381 21.9697 32.5227 22.3721C32.6081 22.7723 32.6962 23.1784 32.7879 23.5908C32.8796 24.0018 32.9749 24.4056 33.0715 24.8001C33.171 25.1946 33.2649 25.5445 33.3559 25.8485C33.4215 25.6106 33.492 25.3254 33.5668 24.9941C33.6415 24.6621 33.7185 24.3208 33.7967 23.9694C33.875 23.6188 33.9506 23.2703 34.0225 22.924C34.0944 22.5805 34.1608 22.2701 34.2194 21.9949C34.2786 21.7197 34.3252 21.4955 34.3604 21.323C34.3964 21.1513 34.4147 21.0622 34.4147 21.0543C34.4479 20.9286 34.4994 20.8409 34.5714 20.7906C34.6433 20.741 34.7385 20.7166 34.8556 20.7166C34.9798 20.7166 35.0835 20.7511 35.1695 20.8208C35.2549 20.8898 35.2965 20.9817 35.2965 21.0938V21.1341C35.2965 21.147 35.293 21.17 35.2873 21.2038C35.2817 21.2569 35.25 21.4172 35.1936 21.6866C35.1385 21.9539 35.0722 22.2802 34.9939 22.661C34.9156 23.0418 34.8267 23.4535 34.7293 23.8947C34.632 24.3359 34.5354 24.7541 34.4408 25.1522C34.3449 25.5509 34.2539 25.9009 34.165 26.2027C34.0776 26.5037 34.0034 26.7086 33.9442 26.8149C33.8666 26.9529 33.7685 27.042 33.6465 27.0786C33.5252 27.116 33.4286 27.1325 33.3573 27.1325C33.3305 27.1325 33.2924 27.1296 33.2387 27.1231C33.1866 27.116 33.1316 27.103 33.073 27.0837C33.0144 27.0635 32.9552 27.0326 32.8966 26.9888C32.8373 26.9456 32.7922 26.8867 32.7597 26.8149C32.7005 26.6884 32.63 26.4793 32.5488 26.1869C32.467 25.8959 32.3781 25.5654 32.2836 25.1982C32.189 24.8296 32.0959 24.4452 32.0042 24.0434C31.9132 23.6418 31.8278 23.266 31.7495 22.9139Z" fill="black"/>
<path d="M36.8747 25.293C36.7773 25.6106 36.6905 25.9059 36.6158 26.1761C36.5396 26.4492 36.4705 26.6712 36.4049 26.8437C36.3322 27.0362 36.1897 27.1317 35.9746 27.1317C35.8221 27.1317 35.715 27.0944 35.6451 27.0183C35.5767 26.942 35.5414 26.8437 35.5414 26.7237C35.5414 26.6784 35.5485 26.6353 35.5618 26.5943C35.5745 26.5555 35.6162 26.4197 35.6846 26.1876C35.7523 25.9555 35.8419 25.6659 35.9541 25.3218C36.0649 24.9768 36.1869 24.5989 36.321 24.1879C36.455 23.7769 36.5939 23.3695 36.7379 22.9692C36.8803 22.5676 37.0214 22.1925 37.159 21.8447C37.2959 21.4962 37.4229 21.216 37.5406 21.004C37.5935 20.8912 37.6627 20.815 37.7516 20.7748C37.8404 20.736 37.959 20.7159 38.1099 20.7159C38.2609 20.7159 38.3759 20.7396 38.4767 20.7849C38.5776 20.8316 38.6482 20.9113 38.6876 21.0241C38.7793 21.2232 38.8887 21.4905 39.0164 21.8253C39.1434 22.1609 39.2782 22.5216 39.4178 22.9096C39.5582 23.2977 39.6971 23.6935 39.834 24.098C39.9715 24.5027 40.0972 24.8792 40.2108 25.2269C40.325 25.5747 40.4237 25.8721 40.5049 26.1179C40.586 26.3629 40.6382 26.5225 40.6572 26.5943C40.6693 26.6353 40.677 26.6784 40.677 26.7237C40.677 26.8437 40.6375 26.942 40.5592 27.0183C40.4802 27.0944 40.3652 27.1317 40.2157 27.1317C40.1049 27.1317 40.0216 27.1066 39.9652 27.057C39.9102 27.0081 39.8664 26.937 39.8333 26.8437C39.7684 26.6712 39.6908 26.4492 39.6034 26.1761C39.5151 25.9052 39.4213 25.6106 39.324 25.293H36.8732H36.8747ZM39.0503 24.4264C38.9134 23.9946 38.7829 23.5987 38.6587 23.238C38.5339 22.8766 38.4069 22.5338 38.2764 22.2076C38.2432 22.1343 38.2094 22.0509 38.1734 21.9539C38.1374 21.8576 38.1162 21.8002 38.1106 21.7808C38.1036 21.7865 38.0824 21.8418 38.0464 21.9453C38.0104 22.0481 37.9759 22.135 37.9442 22.2083C37.8136 22.5338 37.6873 22.8766 37.566 23.2387C37.4461 23.5994 37.317 23.9961 37.1794 24.4272H39.051L39.0503 24.4264Z" fill="black"/>
<path d="M42.3729 24.6248C42.3405 24.5925 42.3094 24.5558 42.2798 24.5163C42.2502 24.476 42.2191 24.4293 42.1867 24.3769C42.095 24.2447 41.9962 24.083 41.8883 23.8947C41.7796 23.7051 41.6724 23.5046 41.5645 23.2926C41.4573 23.0799 41.3529 22.8665 41.2513 22.6509C41.1497 22.4361 41.058 22.2349 40.9783 22.0502C40.8957 21.8641 40.8252 21.7025 40.7674 21.5674C40.7074 21.4316 40.6706 21.3367 40.6587 21.2836C40.646 21.2505 40.6375 21.2261 40.6347 21.2088C40.6319 21.1923 40.6298 21.1671 40.6298 21.1348C40.6298 21.0148 40.67 20.9149 40.7511 20.8359C40.8336 20.7561 40.9458 20.7173 41.0897 20.7173C41.2202 20.7173 41.3126 20.7504 41.3684 20.8165C41.4248 20.8826 41.4657 20.9487 41.4904 21.0155C41.5038 21.0493 41.5349 21.1226 41.585 21.234C41.6329 21.3468 41.6929 21.4855 41.7655 21.6522C41.8375 21.8181 41.9193 22.0007 42.0104 22.1997C42.1027 22.3987 42.1945 22.5941 42.2904 22.786C42.3849 22.9786 42.4773 23.1625 42.5648 23.3379C42.653 23.5132 42.7362 23.6576 42.8146 23.7704C42.9394 23.5779 43.0734 23.3364 43.2166 23.044C43.3598 22.7523 43.4974 22.4634 43.6278 22.1789C43.7584 21.8943 43.8713 21.6421 43.9658 21.423C44.061 21.2045 44.1175 21.068 44.1372 21.0155C44.1647 20.9487 44.2043 20.8826 44.26 20.8165C44.3157 20.7504 44.4095 20.7173 44.54 20.7173C44.684 20.7173 44.7961 20.7561 44.8779 20.8359C44.9598 20.9149 45 21.0148 45 21.1348C45 21.1671 44.9985 21.193 44.9943 21.2088C44.9915 21.2261 44.983 21.2505 44.971 21.2836C44.9499 21.336 44.9132 21.433 44.8574 21.5717C44.8017 21.7111 44.7326 21.8742 44.6508 22.0589C44.5689 22.2442 44.4772 22.4454 44.377 22.661C44.2748 22.8766 44.1711 23.09 44.0639 23.3027C43.9559 23.5146 43.848 23.7172 43.7401 23.9091C43.6329 24.1024 43.5327 24.2641 43.4424 24.397C43.3824 24.4825 43.3203 24.5602 43.2561 24.6248V26.6848C43.2561 26.8178 43.2152 26.9256 43.132 27.0089C43.0508 27.0916 42.9457 27.1325 42.8138 27.1325C42.6819 27.1325 42.5768 27.0916 42.4957 27.0089C42.4138 26.9256 42.3729 26.8178 42.3729 26.6848V24.6248Z" fill="black"/>
</svg>
