<?xml version="1.0" encoding="UTF-8"?><svg xmlns="http://www.w3.org/2000/svg" viewBox="0 0 48 48" fill="none"><style><![CDATA[.B{fill:#1d1d1b}.C{fill-rule:evenodd}]]></style><g clip-path="url(#A)"><g class="C"><use href="#B" fill="#3d73b9"/><g class="B"><path d="M36.046 20.497a3.71 3.71 0 0 1 1.597 1.3 3.49 3.49 0 0 1 .62 1.919c0 1.978-1.8 3.597-4 3.597h-6.17c-.268.008-.528-.086-.724-.261a.96.96 0 0 1-.324-.674V15.109a.97.97 0 0 1 .303-.697c.193-.185.455-.289.728-.29h5.138a4.04 4.04 0 0 1 2.167.621c.643.407 1.147.986 1.45 1.666s.389 1.43.249 2.157-.499 1.398-1.033 1.931zm-4.604-.916h1.958v-.021c.439-.066.84-.28 1.13-.604s.45-.736.452-1.163c-.002-.474-.198-.927-.547-1.262a1.91 1.91 0 0 0-1.315-.525h-3.945v9.347h5.001c.258.008.515-.034.755-.123s.46-.224.645-.396.333-.378.433-.606a1.78 1.78 0 0 0 .152-.72c0-.248-.052-.492-.152-.72s-.248-.434-.433-.606-.405-.307-.645-.396a2 2 0 0 0-.755-.123h-.779-1.954a1.12 1.12 0 0 1-.414-.079c-.131-.052-.25-.128-.351-.225s-.18-.211-.234-.337a1 1 0 0 1 0-.794c.054-.126.134-.24.234-.337s.22-.173.351-.225a1.12 1.12 0 0 1 .414-.079"/></g></g><path d="M15.944 37.858a.31.31 0 0 1 .097-.225c.062-.06.146-.093.234-.093a.34.34 0 0 1 .234.093.31.31 0 0 1 .097.225v1.716c-.001.377-.157.739-.435 1.006a1.52 1.52 0 0 1-2.097.001c-.278-.267-.435-.628-.436-1.005V37.86c-.003-.044.003-.088.018-.129s.039-.079.07-.111a.33.33 0 0 1 .111-.075c.042-.017.087-.027.133-.027s.091.009.132.027a.33.33 0 0 1 .111.075c.031.032.055.07.07.111s.021.085.018.129v1.716c.002.209.09.41.244.558a.85.85 0 0 0 .582.233c.219-.001.428-.085.582-.233a.78.78 0 0 0 .242-.559l-.006-1.716z" class="B"/><use href="#C" class="B"/><path d="M26.065 26.189a1.14 1.14 0 0 1-.028.474 1.17 1.17 0 0 1-.22.426 1.23 1.23 0 0 1-.376.309 1.28 1.28 0 0 1-.472.143 1.29 1.29 0 0 1-.493-.045 1.26 1.26 0 0 1-.435-.227c-.128-.103-.232-.229-.308-.372a1.15 1.15 0 0 1-.132-.458l-1.019-8.956-3.587 8.758v.022.019.019.011.017.019a1.16 1.16 0 0 1-.31.34l-.02.015c-.065.056-.137.105-.214.146l-.023.011-.021.011h-.014-.016-.014-.016-.012-.014-.012-.012-.016c-.116.04-.239.062-.362.065h-.09a1.23 1.23 0 0 1-.405-.08h-.018-.017-.016-.012-.016-.014-.01l-.022-.011-.019-.011h-.012c-.069-.035-.134-.077-.195-.125l-.041-.035-.031-.028-.074-.019-.037-.039c-.05-.058-.094-.121-.131-.187v-.011l-.012-.019-.012-.021v-.013-.015-.011-.017-.015-.017l-3.653-8.779-1.015 8.956c-.035.313-.197.6-.453.798s-.582.29-.908.257-.626-.19-.832-.434-.303-.558-.268-.872l1.196-10.558a1.91 1.91 0 0 1 .23-.71 2 2 0 0 1 .641-.69c.268-.178.576-.293.898-.334h.066a2.22 2.22 0 0 1 .314 0c.126.005.251.021.374.049.323.071.623.217.874.425a1.95 1.95 0 0 1 .565.768l3.067 7.436 3.061-7.461c.144-.354.392-.659.714-.88s.704-.346 1.1-.361a2.22 2.22 0 0 1 .314 0h.066a2.11 2.11 0 0 1 .898.334c.268.178.487.415.641.69.06.111.11.226.15.344s.066.247.08.374l1.202 10.575z" class="B"/><use href="#D" class="B"/><path d="M20.518 40.682a.31.31 0 0 1-.097.225.34.34 0 0 1-.234.093c-.088 0-.172-.033-.234-.093a.31.31 0 0 1-.097-.225v-2.507h-.941a.34.34 0 0 1-.234-.093.31.31 0 0 1 0-.449.34.34 0 0 1 .234-.093h2.544c.088 0 .172.034.234.093a.31.31 0 0 1 0 .449c-.062.06-.146.093-.234.093h-.941v2.507z" class="B"/><use href="#E" class="B"/><use href="#F" class="B"/><path d="M30.377 40.682c.003.044-.002.087-.017.129s-.039.079-.07.111a.33.33 0 0 1-.11.075.35.35 0 0 1-.133.026c-.046 0-.091-.009-.133-.026a.32.32 0 0 1-.11-.075c-.031-.032-.055-.07-.07-.111s-.021-.085-.017-.129v-2.617c-.002-.018-.002-.036 0-.054a.44.44 0 0 1 .025-.103l.027-.056a.47.47 0 0 1 .259-.207l.045-.011h.035.078.01a.48.48 0 0 1 .194.049c.06.03.113.072.155.123l1.753 2.155v-2.103a.31.31 0 0 1 .097-.225.34.34 0 0 1 .468 0 .31.31 0 0 1 .097.225v2.617a.43.43 0 0 1-.046.192.45.45 0 0 1-.127.154c-.021.017-.044.032-.068.045a.28.28 0 0 1-.041.019l-.027.011c-.116.039-.244.032-.355-.019l-.043-.021a.38.38 0 0 1-.064-.049l-.043-.041-.012-.013-1.757-2.163v2.092zm5.167-.318c.088 0 .172.033.234.093a.31.31 0 0 1 0 .449c-.062.06-.146.093-.234.093h-.974a1.33 1.33 0 0 1-.922-.366 1.23 1.23 0 0 1-.382-.884v-.955a1.23 1.23 0 0 1 .383-.883c.244-.234.575-.366.921-.367h.974c.088 0 .172.033.234.093a.31.31 0 0 1 0 .449c-.062.06-.146.093-.234.093h-.974a.66.66 0 0 0-.456.187.61.61 0 0 0-.143.199c-.033.075-.051.155-.052.237v.955a.61.61 0 0 0 .19.437.66.66 0 0 0 .455.182h.974l.006-.011z" class="B"/><use href="#G" class="B"/><use href="#H" class="B"/><use href="#B" fill="#3d73b9" class="C"/><g class="B"><path d="M15.944 37.858a.31.31 0 0 1 .097-.225c.062-.06.146-.093.234-.093a.34.34 0 0 1 .234.093.31.31 0 0 1 .097.225v1.716c-.001.377-.157.739-.435 1.006a1.52 1.52 0 0 1-2.097.001 1.4 1.4 0 0 1-.436-1.005V37.86c-.003-.044.003-.088.018-.129s.039-.079.07-.111a.33.33 0 0 1 .11-.075c.042-.017.087-.027.133-.027s.091.009.133.027a.33.33 0 0 1 .11.075c.031.032.055.07.07.111s.021.085.018.129v1.716c.002.209.09.41.244.558a.85.85 0 0 0 .582.233c.219-.001.428-.085.582-.233a.78.78 0 0 0 .242-.559l-.006-1.716z"/><use href="#C"/><use href="#D"/><path d="M20.518 40.682a.31.31 0 0 1-.097.225.34.34 0 0 1-.468 0 .31.31 0 0 1-.097-.225v-2.507h-.941a.34.34 0 0 1-.234-.093.31.31 0 0 1 0-.449.34.34 0 0 1 .234-.093h2.544a.34.34 0 0 1 .234.093.31.31 0 0 1 0 .449.34.34 0 0 1-.234.093h-.941v2.507z"/><use href="#E"/><use href="#F"/><path d="M30.377 40.682c.003.044-.002.087-.017.129s-.039.079-.07.111-.069.058-.111.075-.087.026-.132.026-.091-.009-.133-.026-.08-.043-.111-.075-.055-.07-.07-.111-.021-.085-.017-.129v-2.617c-.002-.018-.002-.036 0-.054.004-.035.013-.07.025-.103l.027-.056a.47.47 0 0 1 .259-.207l.045-.011h.035.078.01c.068.003.134.02.194.049s.113.072.155.123l1.754 2.155v-2.103a.31.31 0 0 1 .097-.225.34.34 0 0 1 .468 0 .31.31 0 0 1 .097.225v2.617a.43.43 0 0 1-.046.192.45.45 0 0 1-.127.154.42.42 0 0 1-.068.045c-.013.007-.027.014-.041.019l-.027.011c-.116.039-.244.032-.355-.019l-.043-.021a.38.38 0 0 1-.064-.049.44.44 0 0 1-.043-.041l-.012-.013-1.757-2.163v2.092zm5.167-.317c.088 0 .172.033.234.093s.097.14.097.225-.035.165-.097.225-.146.093-.234.093h-.974a1.33 1.33 0 0 1-.922-.366c-.244-.234-.382-.553-.382-.884v-.955a1.23 1.23 0 0 1 .383-.883c.244-.234.575-.366.921-.367h.974a.34.34 0 0 1 .234.093.31.31 0 0 1 0 .449c-.062.06-.146.093-.234.093h-.974a.66.66 0 0 0-.456.187.61.61 0 0 0-.143.199c-.033.075-.051.155-.052.237v.955a.61.61 0 0 0 .19.436.66.66 0 0 0 .455.182h.974l.006-.011z"/><use href="#G"/><use href="#H"/></g></g><defs><clipPath id="A"><path fill="#fff" transform="translate(9 7)" d="M0 0h30v34H0z"/></clipPath><path id="B" d="M23.846 34.399h12.286c2.804 0 2.833-2.86 2.546-4.271-.156-.95-1.837-.935-2.022 0v1.101a.9.9 0 0 1-.28.647c-.179.172-.421.268-.674.269H12.15a.98.98 0 0 1-.675-.269.9.9 0 0 1-.28-.647v-1.101c-.185-.935-1.866-.95-2.022 0-.286 1.411-.257 4.271 2.546 4.271h12.126zM15.163 6.998h18.941c1.331 0 2.42 1.107 2.42 2.458v1.174c0 1.66-2.338 1.652-2.338.011v-.639c0-.198-.082-.389-.228-.529s-.344-.219-.551-.219h-18.98c-.207 0-.405.079-.551.219s-.228.33-.228.529v.628c0 1.651-2.233 1.639-2.233.036V9.458c.006-1.352 1.093-2.46 2.424-2.46h1.325z"/><path id="C" d="M19.077 40.364c.088 0 .172.033.234.093a.31.31 0 0 1 0 .449c-.062.06-.146.093-.234.093h-.92c-.329 0-.645-.125-.878-.349s-.363-.526-.363-.842v-1.952a.31.31 0 0 1 .096-.223c.062-.059.146-.093.233-.093s.171.033.233.093a.31.31 0 0 1 .096.223v1.948a.55.55 0 0 0 .171.396c.11.105.258.164.413.164h.918v-.002z"/><path id="D" d="M13.51 40.647c.008.043.007.086-.003.129a.31.31 0 0 1-.056.117c-.027.035-.061.064-.1.086a.34.34 0 0 1-.127.041c-.045.005-.09.001-.134-.011s-.084-.033-.118-.061a.32.32 0 0 1-.083-.101c-.02-.039-.032-.081-.035-.124l-.283-2.286-1.011 2.243c-.035.077-.1.138-.181.169s-.172.03-.253-.003-.139-.092-.171-.166l-1.011-2.243-.284 2.286c-.003.043-.014.086-.035.124a.32.32 0 0 1-.083.101c-.035.028-.075.049-.118.061s-.089.016-.134.011a.34.34 0 0 1-.127-.041c-.039-.022-.073-.051-.1-.086s-.046-.075-.056-.117-.011-.086-.003-.129l.333-2.655a.5.5 0 0 1 .093-.232c.051-.069.118-.125.197-.162.021-.011.042-.02.064-.028h.025c.032-.011.064-.017.097-.021.083-.011.168-.004.247.02a.57.57 0 0 1 .214.12c.025.022.047.047.066.073a.52.52 0 0 1 .039.06c.007.011.014.023.019.035l.857 1.907.857-1.922c.035-.076.089-.143.157-.196s.148-.088.233-.105c.032-.006.065-.011.097-.013h.101a.57.57 0 0 1 .237.08c.072.044.132.103.176.172.018.029.034.06.045.092.008.02.014.041.018.062.001.014.001.027 0 .041l.333 2.671z"/><path id="E" d="M22.584 40.682a.31.31 0 0 1-.097.225.34.34 0 0 1-.234.093c-.088 0-.172-.033-.234-.093a.31.31 0 0 1-.097-.225v-2.825a.31.31 0 0 1 .097-.225c.062-.06.146-.093.234-.093a.34.34 0 0 1 .234.093.31.31 0 0 1 .097.225v2.825z"/><path id="F" d="M29.366 40.647a.31.31 0 0 1-.075.224c-.054.063-.131.103-.215.113a.34.34 0 0 1-.237-.06c-.068-.048-.114-.12-.129-.2l-.117-.897h-1.138c-.046.003-.091-.002-.134-.017s-.083-.037-.116-.067a.32.32 0 0 1-.079-.106c-.018-.04-.028-.083-.028-.127s.009-.087.028-.127a.32.32 0 0 1 .079-.106c.034-.03.073-.053.116-.067s.089-.02.134-.017h1.064l-.031-.234v-.023c-.009-.055-.021-.109-.037-.163s-.041-.113-.068-.166a.73.73 0 0 0-.27-.307c-.119-.076-.257-.118-.4-.121-.056 0-.113.007-.168.019a.67.67 0 0 0-.148.054.91.91 0 0 0-.322.298c-.08.123-.128.263-.138.408l-.206 1.765a.31.31 0 0 1-.039.117.32.32 0 0 1-.083.094c-.034.026-.073.045-.114.057s-.085.015-.128.011-.085-.017-.122-.037-.071-.047-.098-.079-.047-.07-.059-.109-.016-.082-.011-.123l.207-1.765a1.48 1.48 0 0 1 .25-.7 1.56 1.56 0 0 1 .566-.504c.093-.045.191-.079.292-.103s.213-.035.321-.035c.265.001.525.075.748.214s.4.334.511.566a1.75 1.75 0 0 1 .113.269c.025.085.044.172.056.26.002.009.002.019 0 .028l.226 1.763z"/><path id="G" d="M37.459 38.174a.92.92 0 0 0-.625.239c-.08.072-.144.159-.187.255a.75.75 0 0 0-.068.305v.593a.75.75 0 0 0 .067.305c.044.096.107.183.187.256a.92.92 0 0 0 .625.239.92.92 0 0 0 .626-.239.78.78 0 0 0 .188-.255.75.75 0 0 0 .068-.305v-.593c-.001-.105-.024-.209-.067-.305s-.107-.183-.186-.256a.93.93 0 0 0-.627-.239m0-.634c.404-.001.792.147 1.083.415a1.41 1.41 0 0 1 .338.463 1.36 1.36 0 0 1 .12.553v.593a1.36 1.36 0 0 1-.12.553 1.41 1.41 0 0 1-.338.463c-.291.268-.68.416-1.083.415s-.792-.147-1.083-.415c-.143-.131-.258-.289-.336-.464s-.119-.363-.12-.553v-.593c.001-.19.041-.378.12-.553s.193-.333.336-.464c.291-.268.68-.416 1.083-.415z"/><path id="H" d="M23.521 38.175v2.189h1.278a.43.43 0 0 0 .159-.031c.05-.02.096-.05.135-.087s.069-.081.09-.13.031-.1.031-.153c0-.1-.039-.196-.109-.269l-.014-.011c-.038-.038-.083-.068-.134-.088s-.104-.031-.159-.031h-.44c-.088 0-.172-.034-.234-.093a.31.31 0 0 1 0-.449c.062-.06.146-.093.234-.093h.15c.094-.008.182-.047.249-.11.037-.035.067-.076.087-.122a.36.36 0 0 0 .03-.145c0-.099-.041-.194-.114-.264s-.172-.109-.276-.109h-.964v-.002zm-.662 1.075v-1.38c0-.043.009-.086.027-.125s.044-.078.076-.11c.059-.054.136-.086.218-.09h1.296c.279 0 .548.107.745.296a.99.99 0 0 1 .147 1.254c.07.04.136.088.195.142l.021.022c.189.191.294.445.294.709 0 .273-.114.536-.316.729a1.1 1.1 0 0 1-.76.303H23.19a.34.34 0 0 1-.234-.093.31.31 0 0 1-.097-.225V39.25z"/></defs></svg>